<svg width="32" height="32" viewBox="0 0 32 32" fill="none" xmlns="http://www.w3.org/2000/svg">
<path d="M0 10.4C0 4.65624 4.65624 0 10.4 0H21.6C27.3438 0 32 4.65624 32 10.4V21.6C32 27.3438 27.3438 32 21.6 32H10.4C4.65624 32 0 27.3438 0 21.6V10.4Z" fill="#00C950"/>
<path d="M15.1667 22.8391C10.6762 22.8527 7.85491 18.0001 10.0884 14.1045C10.9545 12.5938 12.4502 11.549 14.1667 11.2558C18.9167 10.3391 20.1667 9.90577 21.8333 7.83911C22.6667 9.50577 23.5 11.3224 23.5 14.5058C23.5 19.0891 19.5167 22.8391 15.1667 22.8391V22.8391M7.66667 23.6724C7.66667 21.1724 9.20833 19.2058 11.9 18.6724C13.9167 18.2724 16 17.0058 16.8333 16.1724" stroke="#F0FDF4" stroke-width="2"/>
</svg>
